PathFileType	4	(X/Y/Z)	Patient4_TMGait_0pt5_02_right_09.trc.trc
DataRate	CameraRate	NumFrames	NumMarkers	Units	OrigDataRate	OrigDataStartFrame	OrigNumFrames
74.866310160428	74.866310160428	4	33	mm	74.866310160428	124	       141
Frame#	Time	Sacral			L.Shoulder			Chest			R.Shoulder			Neck			R.ASIS			L.ASIS			R.Thigh.Superior			R.Thigh.Lateral			R.Thigh.Inferior			R.Patella			L.Thigh.Superior			L.Thigh.Lateral			L.Thigh.Inferior			L.Patella			L.Shank.Superior			L.Shank.Lateral			L.Shank.Inferior			R.Shank.Superior			R.Shank.Lateral			R.Shank.Inferior			R.Heel			R.Midfoot.Superior			R.Midfoot.Lateral			R.Toe			L.Heel			L.Midfoot.Lateral			L.Midfoot.Superior			L.Toe			L.Elbow			L.Wrist			R.Elbow			R.Wrist			
		X1	Y1	Z1	X2	Y2	Z2	X3	Y3	Z3	X4	Y4	Z4	X5	Y5	Z5	X6	Y6	Z6	X7	Y7	Z7	X8	Y8	Z8	X9	Y9	Z9	X10	Y10	Z10	X11	Y11	Z11	X12	Y12	Z12	X13	Y13	Z13	X14	Y14	Z14	X15	Y15	Z15	X16	Y16	Z16	X17	Y17	Z17	X18	Y18	Z18	X19	Y19	Z19	X20	Y20	Z20	X21	Y21	Z21	X22	Y22	Z22	X23	Y23	Z23	X24	Y24	Z24	X25	Y25	Z25	X26	Y26	Z26	X27	Y27	Z27	X28	Y28	Z28	X29	Y29	Z29	X30	Y30	Z30	X31	Y31	Z31	X32	Y32	Z32	X33	Y33	Z33	

124	13.392928571429	603.054286478095	1002.659593444236	442.665962053905	808.906652859129	1431.618813300073	288.759476866558	887.185975043325	1354.954699024969	460.056551290741	783.252294910157	1427.890752348113	623.678168619349	788.878858852564	1488.857775207317	440.260489159418	817.747449614401	935.163938687614	584.728007183038	831.114967269372	952.419087501175	309.582330627100	884.458544445257	751.446426079154	557.733901670513	821.478705803275	633.672882684147	619.374453086935	908.785608449641	591.308049358128	541.983910835009	929.069727433963	509.489654227598	551.392866395246	834.360021720774	725.430647855761	340.908658293143	724.948046136279	629.683629529726	271.538177816212	778.956691699070	537.727465050125	342.472357588224	763.344697736807	469.699950746435	352.777316423701	729.127151311221	403.529997487870	342.211886549257	629.207876818357	301.658361256747	284.496623188140	654.985983828460	186.174866975542	360.319012803965	916.550141527226	419.900081964811	561.287198645770	865.659075567811	306.372768819355	625.182166386036	930.868592890205	220.809492523172	568.905357687809	831.292441519223	42.704932935688	541.403216072942	997.688218073819	107.204023227930	576.670375865726	916.459092853597	37.968698913330	614.104418623448	1120.776621213254	63.439491347170	600.549238470143	508.249039014803	38.905514473278	394.827808371269	584.633836778350	35.203449882153	316.825890198919	667.902783340723	94.994549975469	346.819845906657	796.356695605075	41.401324901466	320.719186144362	874.228787881508	1096.721145459824	146.787457538832	1119.925742238992	1032.652644310919	192.532844927730	615.887118608097	1125.884992720254	715.488548004396	567.901967210409	869.447389535724	729.912439288991	
125	13.406285714286	605.054881169692	1001.770699206981	446.012054422828	809.466979029663	1430.689772816544	291.326299404801	888.545976414071	1354.512593325491	462.466872100253	784.685012372151	1427.167359003043	626.371795227266	789.746007284592	1488.174199636889	442.842025798792	820.582899247261	934.297327054811	587.079504138252	832.821467947135	951.737311186431	312.026636988862	887.429229807152	750.423027360887	559.152734191086	823.488177011337	632.636182155933	620.177159910020	910.568517564439	590.423373924329	542.625310563035	929.436850639530	507.368613217419	551.354256715313	834.879554712273	724.232158123591	342.284001709142	724.084181693740	629.283916424078	273.669918277177	778.014029914164	536.704316211367	343.879656718979	762.312200435746	468.264841234590	354.009903403656	726.772460140734	402.634159447447	343.517081403736	625.279762204377	302.377281762135	285.532688192897	649.743281452764	186.127833861622	360.632396316308	915.820549549841	417.346476448247	561.187860866798	863.012738382648	304.683550432929	625.292301452061	925.689168814578	217.805934426042	568.146721021317	821.532007402498	42.396075422910	541.252862138463	989.504443901888	103.606581582018	575.383255459926	906.730260548242	36.808324028371	613.940109532382	1112.053964441075	57.350386041292	599.427003312032	501.515984062584	39.787138481548	394.569385364580	578.021987362917	35.574134087074	316.787531653268	661.577173630478	95.085214697091	346.708596772716	789.814685882657	40.909028199604	320.643430407598	873.300067248046	1094.481360683915	150.743589539979	1118.437833063206	1027.850083065193	197.121583509698	620.531831851589	1122.720617279395	717.387769237009	576.146380154956	865.251621223103	730.199864301963	
126	13.419642857143	607.034009553239	1001.143091145604	449.461815607393	810.029834676043	1430.042154217486	294.013876924898	889.968217453963	1354.273904216740	464.935488621655	786.299237255146	1426.645894049762	629.202662718935	790.751721358289	1487.741152070154	445.575642309804	823.404416646389	933.710683073437	589.436124398121	834.381090365500	951.285250360290	314.460771126011	890.296362957740	749.618333856443	560.465590603184	825.597411490135	631.995391235113	621.073926471351	912.247327606766	589.821681628900	543.161684243218	929.853856482549	505.582809198085	551.374548624101	835.745085261793	723.369238657501	343.729929814612	723.829454688619	628.957246767469	275.959521140411	777.991111183457	535.836026675805	345.419937069288	762.322283414957	466.803605500366	355.289739277753	725.224424563242	401.746871146278	344.898578462181	621.938912428148	303.399344772271	286.646063334963	644.875098437184	186.302195702047	360.924754653594	915.190986801366	415.271743948392	561.187239187927	860.755874595818	303.432276535816	625.602374589267	920.951550299822	215.369862735449	567.512860322562	812.633076678045	42.197965331657	541.267320296036	981.852839904640	100.867644597008	574.262174608204	897.896639242442	36.066458787522	613.893151524157	1104.011648908520	52.675771506265	598.439324766592	494.865569177721	41.275120265447	394.268514958340	571.470130113318	36.246417875410	316.722197126993	655.473867457742	95.270196677273	346.519814238349	783.302010614467	40.378742669106	320.557397178522	871.879333258309	1092.357816213236	154.897048067320	1116.233693263862	1021.925967267220	201.572352380688	625.920257352225	1119.436953835176	719.610766020056	585.965185139922	860.837719020428	730.792187375413	
127	13.433000000000	608.974742714160	1000.830735747789	452.985942994867	810.617472990564	1429.736661271025	296.802774307279	891.438448433835	1354.277622573496	467.448681737235	788.092822802856	1426.397398865358	632.140945220690	791.893289371965	1487.605684969934	448.430969298533	826.145233579316	933.440495508977	591.821855684383	835.753652741937	951.120161454997	316.891090054726	892.960917286027	749.090036194048	561.712041051450	827.720247919164	631.751991063348	622.086901319416	913.757631612127	589.502256796598	543.658673089592	930.246754818039	504.166689333783	551.534307408482	836.992701225755	722.914157949906	345.294638180906	724.339965695702	628.708118610683	278.389594507609	779.093693823574	535.157318184339	347.084664823546	763.576976324374	465.337333150031	356.572632502562	724.672181514283	400.888338967265	346.320328347118	619.353096047786	304.789552996230	287.826796950955	640.510438550784	186.766461283688	361.179367225776	914.578784906077	413.697487593406	561.328248620787	858.785202665222	302.626947227056	626.102857637970	916.608613157962	213.530977873094	567.042783251409	804.635006946994	42.113822036742	541.390052611590	974.768435750115	98.978533582752	573.373475328593	889.972467168516	35.694137493825	613.934167767461	1096.661903097048	49.382080734389	597.663702136453	488.374398385987	43.560359877430	393.943377787016	565.019417760576	37.340407278499	316.636834930842	649.679038903930	95.584391794089	346.244111563628	776.819261745440	39.821582118880	320.467250356854	869.963223799128	1090.450374587031	159.234356673544	1113.230592678346	1014.937903332401	205.828102466417	631.970510583911	1116.200127458997	722.149464126681	597.334862377755	856.432112144682	731.720180910611	
